<svg xmlns="http://www.w3.org/2000/svg" xmlns:xlink="http://www.w3.org/1999/xlink" width="700" zoomAndPan="magnify" viewBox="0 0 525 225" height="300" preserveAspectRatio="xMidYMid meet" version="1.0"><defs><clipPath id="83efb5edf3"><path d="M 210 161 L 273 161 L 273 192.144531 L 210 192.144531 Z M 210 161 " clip-rule="nonzero"/></clipPath><clipPath id="c8532c9a6d"><path d="M 236 161 L 299 161 L 299 192.144531 L 236 192.144531 Z M 236 161 " clip-rule="nonzero"/></clipPath><clipPath id="bf29d7e6f1"><path d="M 164 26 L 345 26 L 345 135 L 164 135 Z M 164 26 " clip-rule="nonzero"/></clipPath><clipPath id="53a9e97a32"><path d="M 254.496094 -63.390625 L 398.746094 80.859375 L 254.496094 225.109375 L 110.246094 80.859375 Z M 254.496094 -63.390625 " clip-rule="nonzero"/></clipPath><clipPath id="c5b20a1acc"><path d="M 254.496094 -63.390625 L 398.746094 80.859375 L 254.496094 225.109375 L 110.246094 80.859375 Z M 254.496094 -63.390625 " clip-rule="nonzero"/></clipPath><clipPath id="e893a8ce1a"><path d="M 216 67 L 246 67 L 246 98 L 216 98 Z M 216 67 " clip-rule="nonzero"/></clipPath><clipPath id="c283b31821"><path d="M 254.496094 -63.390625 L 398.746094 80.859375 L 254.496094 225.109375 L 110.246094 80.859375 Z M 254.496094 -63.390625 " clip-rule="nonzero"/></clipPath><clipPath id="6386a9409f"><path d="M 254.496094 -63.390625 L 398.746094 80.859375 L 254.496094 225.109375 L 110.246094 80.859375 Z M 254.496094 -63.390625 " clip-rule="nonzero"/></clipPath><clipPath id="2138dab07f"><path d="M 251 67 L 261 67 L 261 98 L 251 98 Z M 251 67 " clip-rule="nonzero"/></clipPath><clipPath id="c69318279e"><path d="M 254.496094 -63.390625 L 398.746094 80.859375 L 254.496094 225.109375 L 110.246094 80.859375 Z M 254.496094 -63.390625 " clip-rule="nonzero"/></clipPath><clipPath id="25819164fa"><path d="M 254.496094 -63.390625 L 398.746094 80.859375 L 254.496094 225.109375 L 110.246094 80.859375 Z M 254.496094 -63.390625 " clip-rule="nonzero"/></clipPath><clipPath id="b5b87c402e"><path d="M 269 67 L 293 67 L 293 98 L 269 98 Z M 269 67 " clip-rule="nonzero"/></clipPath><clipPath id="d82276821e"><path d="M 254.496094 -63.390625 L 398.746094 80.859375 L 254.496094 225.109375 L 110.246094 80.859375 Z M 254.496094 -63.390625 " clip-rule="nonzero"/></clipPath><clipPath id="9b9ea3c4cd"><path d="M 254.496094 -63.390625 L 398.746094 80.859375 L 254.496094 225.109375 L 110.246094 80.859375 Z M 254.496094 -63.390625 " clip-rule="nonzero"/></clipPath></defs><path fill="#ffffff" d="M 213.851562 172.058594 C 212.96875 166.761719 208.140625 159.925781 196.816406 159.667969 C 196.894531 165.109375 202.09375 171.542969 213.851562 172.058594 Z M 213.851562 172.058594 " fill-opacity="1" fill-rule="nonzero"/><path fill="#ffffff" d="M 137.476562 145.511719 C 136.867188 137.457031 125.203125 132.144531 122.378906 132.238281 C 121.722656 131.453125 123.019531 145.542969 137.476562 145.511719 Z M 137.476562 145.511719 " fill-opacity="1" fill-rule="nonzero"/><path fill="#ffffff" d="M 193.6875 167.324219 C 193.414062 162.347656 189.582031 154.773438 178.832031 153.246094 C 178.398438 158.046875 182.136719 165.460938 193.6875 167.324219 Z M 193.6875 167.324219 " fill-opacity="1" fill-rule="nonzero"/><path fill="#ffffff" d="M 175.625 162.21875 C 175.816406 157.242188 172.289062 150.230469 163.433594 148.0625 C 162.46875 152.6875 165.695312 159.621094 175.625 162.21875 Z M 175.625 162.21875 " fill-opacity="1" fill-rule="nonzero"/><path fill="#ffffff" d="M 160.882812 156.152344 C 161.234375 151.933594 158.957031 145.03125 150.085938 142.367188 C 148.832031 146.84375 151.800781 153.503906 160.882812 156.152344 Z M 160.882812 156.152344 " fill-opacity="1" fill-rule="nonzero"/><path fill="#ffffff" d="M 147.050781 150.085938 C 147.742188 145.976562 145.832031 140.121094 138.695312 137.246094 C 137.28125 140.921875 139 146.972656 147.050781 150.085938 Z M 147.050781 150.085938 " fill-opacity="1" fill-rule="nonzero"/><path fill="#ffffff" d="M 213.484375 174.078125 C 201.933594 170.210938 194.570312 174.304688 192.277344 178.394531 C 201.597656 183.148438 210.226562 179.890625 213.484375 174.078125 Z M 213.484375 174.078125 " fill-opacity="1" fill-rule="nonzero"/><path fill="#ffffff" d="M 172.238281 172.859375 C 183.117188 178.234375 190.800781 172.972656 193.300781 168.636719 C 182.394531 165.109375 174.789062 168.574219 172.238281 172.859375 Z M 172.238281 172.859375 " fill-opacity="1" fill-rule="nonzero"/><path fill="#ffffff" d="M 175.191406 163.902344 C 165.179688 159.636719 158.378906 162.460938 155.941406 165.847656 C 164.121094 170.933594 171.695312 168.78125 175.191406 163.902344 Z M 175.191406 163.902344 " fill-opacity="1" fill-rule="nonzero"/><path fill="#ffffff" d="M 159.902344 157.550781 C 150.664062 153.714844 143.859375 156.121094 141.324219 159.3125 C 149.171875 164.242188 156.582031 162.140625 159.902344 157.550781 Z M 159.902344 157.550781 " fill-opacity="1" fill-rule="nonzero"/><path fill="#ffffff" d="M 146.074219 151.609375 C 138.359375 146.796875 132.4375 148.0625 129.839844 150.457031 C 135.902344 155.960938 142.640625 155.140625 146.074219 151.609375 Z M 146.074219 151.609375 " fill-opacity="1" fill-rule="nonzero"/><g clip-path="url(#83efb5edf3)"><path fill="#ffffff" d="M 230.824219 175.121094 C 229.75 169.023438 224.746094 162.523438 214.367188 161.65625 C 214.367188 165.78125 217.765625 172.890625 228.691406 175.042969 L 229.09375 175.042969 C 217.75 173.964844 211.542969 180.707031 210.242188 183.996094 C 220.207031 187.207031 227.984375 183.210938 230.617188 176.902344 C 239.101562 176.902344 262.285156 179.519531 270.722656 192.148438 L 272.664062 189.871094 C 272.664062 189.871094 265.1875 175.570312 230.824219 175.121094 Z M 230.824219 175.121094 " fill-opacity="1" fill-rule="nonzero"/></g><path fill="#ffffff" d="M 295.058594 172.058594 C 295.941406 166.761719 300.769531 159.925781 312.078125 159.667969 C 312 165.109375 306.816406 171.542969 295.058594 172.058594 Z M 295.058594 172.058594 " fill-opacity="1" fill-rule="nonzero"/><path fill="#ffffff" d="M 371.4375 145.511719 C 372.03125 137.488281 383.707031 132.144531 386.53125 132.273438 C 387.191406 131.453125 385.875 145.542969 371.4375 145.511719 Z M 371.4375 145.511719 " fill-opacity="1" fill-rule="nonzero"/><path fill="#ffffff" d="M 315.222656 167.324219 C 315.496094 162.347656 319.332031 154.773438 330.078125 153.246094 C 330.578125 158.046875 326.757812 165.460938 315.222656 167.324219 Z M 315.222656 167.324219 " fill-opacity="1" fill-rule="nonzero"/><path fill="#ffffff" d="M 333.273438 162.21875 C 333.09375 157.242188 336.625 150.230469 345.480469 148.0625 C 346.441406 152.6875 343.21875 159.621094 333.273438 162.21875 Z M 333.273438 162.21875 " fill-opacity="1" fill-rule="nonzero"/><path fill="#ffffff" d="M 348.03125 156.152344 C 347.675781 151.933594 349.957031 145.03125 358.828125 142.367188 C 360.078125 146.84375 357.09375 153.503906 348.03125 156.152344 Z M 348.03125 156.152344 " fill-opacity="1" fill-rule="nonzero"/><path fill="#ffffff" d="M 361.859375 150.085938 C 361.167969 145.976562 363.078125 140.121094 370.21875 137.246094 C 371.628906 140.921875 369.914062 146.972656 361.859375 150.085938 Z M 361.859375 150.085938 " fill-opacity="1" fill-rule="nonzero"/><path fill="#ffffff" d="M 295.507812 174.078125 C 307.058594 170.210938 314.40625 174.304688 316.714844 178.394531 C 307.316406 183.148438 298.714844 179.890625 295.507812 174.078125 Z M 295.507812 174.078125 " fill-opacity="1" fill-rule="nonzero"/><path fill="#ffffff" d="M 336.671875 172.859375 C 325.796875 178.234375 318.09375 172.972656 315.609375 168.636719 C 326.5 165.109375 334.121094 168.574219 336.671875 172.859375 Z M 336.671875 172.859375 " fill-opacity="1" fill-rule="nonzero"/><path fill="#ffffff" d="M 333.785156 163.902344 C 343.796875 159.636719 350.597656 162.460938 353.035156 165.847656 C 344.789062 170.933594 337.21875 168.78125 333.785156 163.902344 Z M 333.785156 163.902344 " fill-opacity="1" fill-rule="nonzero"/><path fill="#ffffff" d="M 349.007812 157.550781 C 358.25 153.714844 365.050781 156.121094 367.585938 159.3125 C 359.675781 164.242188 352.328125 162.140625 349.007812 157.550781 Z M 349.007812 157.550781 " fill-opacity="1" fill-rule="nonzero"/><path fill="#ffffff" d="M 362.886719 151.609375 C 370.585938 146.796875 376.523438 148.0625 379.121094 150.457031 C 373.007812 155.960938 366.253906 155.140625 362.886719 151.609375 Z M 362.886719 151.609375 " fill-opacity="1" fill-rule="nonzero"/><g clip-path="url(#c8532c9a6d)"><path fill="#ffffff" d="M 278.085938 175.121094 C 279.160156 169.023438 284.167969 162.523438 294.546875 161.65625 C 294.546875 165.78125 291.144531 172.890625 280.21875 175.042969 L 279.820312 175.042969 C 291.160156 173.839844 297.367188 180.644531 298.667969 183.933594 C 288.707031 187.144531 280.925781 183.148438 278.292969 176.839844 C 269.792969 176.839844 246.628906 179.457031 238.1875 192.085938 L 236.152344 189.871094 C 236.152344 189.871094 243.722656 175.570312 278.085938 175.121094 Z M 278.085938 175.121094 " fill-opacity="1" fill-rule="nonzero"/></g><g clip-path="url(#bf29d7e6f1)"><g clip-path="url(#53a9e97a32)"><g clip-path="url(#c5b20a1acc)"><path fill="#ffffff" d="M 344.78125 99.140625 L 338.804688 99.144531 C 333.921875 99.144531 329.332031 97.242188 325.878906 93.785156 C 322.425781 90.332031 320.523438 85.742188 320.523438 80.859375 C 320.523438 75.976562 322.425781 71.386719 325.878906 67.933594 C 329.332031 64.476562 333.921875 62.574219 338.804688 62.578125 L 344.785156 62.574219 L 344.78125 26.894531 L 164.210938 26.894531 L 164.210938 62.574219 L 170.191406 62.574219 C 175.074219 62.574219 179.664062 64.476562 183.117188 67.929688 C 186.574219 71.382812 188.472656 75.976562 188.472656 80.859375 C 188.472656 85.742188 186.570312 90.332031 183.117188 93.785156 C 179.664062 97.242188 175.074219 99.144531 170.191406 99.144531 L 164.210938 99.140625 L 164.210938 134.824219 L 344.78125 134.824219 Z M 176.167969 110.511719 C 181.964844 109.351562 187.296875 106.515625 191.570312 102.238281 C 197.285156 96.527344 200.429688 88.9375 200.429688 80.859375 C 200.429688 72.78125 197.285156 65.1875 191.570312 59.476562 C 187.296875 55.199219 181.964844 52.363281 176.167969 51.207031 L 176.167969 38.847656 L 332.828125 38.847656 L 332.828125 51.207031 C 327.03125 52.363281 321.699219 55.199219 317.421875 59.476562 C 311.710938 65.1875 308.566406 72.78125 308.566406 80.859375 C 308.566406 88.9375 311.714844 96.53125 317.421875 102.238281 C 321.699219 106.515625 327.03125 109.351562 332.828125 110.511719 L 332.828125 122.871094 L 176.167969 122.871094 Z M 176.167969 110.511719 " fill-opacity="1" fill-rule="nonzero"/></g></g></g><g clip-path="url(#e893a8ce1a)"><g clip-path="url(#c283b31821)"><g clip-path="url(#6386a9409f)"><path fill="#ffffff" d="M 245.429688 67.835938 L 236.78125 67.835938 L 231 87.457031 L 225.136719 67.835938 L 216.445312 67.835938 L 227.582031 97.796875 L 234.417969 97.796875 Z M 245.429688 67.835938 " fill-opacity="1" fill-rule="nonzero"/></g></g></g><g clip-path="url(#2138dab07f)"><g clip-path="url(#c69318279e)"><g clip-path="url(#25819164fa)"><path fill="#ffffff" d="M 251.882812 67.835938 L 260.113281 67.839844 L 260.113281 97.796875 L 251.882812 97.796875 Z M 251.882812 67.835938 " fill-opacity="1" fill-rule="nonzero"/></g></g></g><g clip-path="url(#b5b87c402e)"><g clip-path="url(#d82276821e)"><g clip-path="url(#9b9ea3c4cd)"><path fill="#ffffff" d="M 277.707031 88.597656 L 282.601562 88.597656 C 288.507812 88.597656 292.472656 83.535156 292.476562 78.214844 C 292.472656 73.113281 288.253906 67.835938 282.390625 67.835938 L 269.480469 67.839844 L 269.480469 97.792969 L 277.707031 97.796875 Z M 282.050781 81.421875 L 277.707031 81.421875 L 277.707031 75.007812 L 281.84375 75.007812 C 282.855469 75.007812 284.121094 75.726562 284.121094 78.214844 C 284.121094 80.621094 283.066406 81.421875 282.050781 81.421875 Z M 282.050781 81.421875 " fill-opacity="1" fill-rule="nonzero"/></g></g></g></svg>