<svg xmlns="http://www.w3.org/2000/svg" xmlns:xlink="http://www.w3.org/1999/xlink" width="500" zoomAndPan="magnify" viewBox="0 0 375 374.999991" height="500" preserveAspectRatio="xMidYMid meet" version="1.0"><defs><clipPath id="e95b308d95"><path d="M 126 39 L 272 39 L 272 338.191406 L 126 338.191406 Z M 126 39 " clip-rule="nonzero"/></clipPath><clipPath id="b0cb018546"><path d="M 107 33 L 258 33 L 258 343.21875 L 107 343.21875 Z M 107 33 " clip-rule="nonzero"/></clipPath></defs><g clip-path="url(#e95b308d95)"><path fill="#ffffff" d="M 152.847656 188.105469 L 268.285156 58.617188 C 272.460938 53.941406 272.042969 46.75 267.355469 42.558594 C 262.679688 38.390625 255.484375 38.808594 251.300781 43.488281 L 129.175781 180.484375 C 125.355469 184.789062 125.339844 191.246094 129.128906 195.570312 L 251.265625 334.335938 C 253.5 336.886719 256.648438 338.191406 259.789062 338.191406 C 262.46875 338.191406 265.144531 337.257812 267.300781 335.355469 C 272.019531 331.207031 272.480469 324.027344 268.328125 319.300781 Z M 152.847656 188.105469 " fill-opacity="1" fill-rule="nonzero"/></g><g clip-path="url(#b0cb018546)"><path fill="#000000" d="M 134.757812 187.507812 L 254.242188 53.164062 C 258.5625 48.3125 258.128906 40.847656 253.277344 36.503906 C 248.4375 32.175781 240.992188 32.609375 236.660156 37.46875 L 110.257812 179.597656 C 106.300781 184.0625 106.285156 190.765625 110.210938 195.25 L 236.625 339.21875 C 238.9375 341.867188 242.195312 343.21875 245.445312 343.21875 C 248.222656 343.21875 250.992188 342.25 253.222656 340.277344 C 258.109375 335.972656 258.582031 328.523438 254.289062 323.621094 Z M 134.757812 187.507812 " fill-opacity="1" fill-rule="nonzero"/></g></svg>