<svg xmlns="http://www.w3.org/2000/svg" xmlns:xlink="http://www.w3.org/1999/xlink" width="500" zoomAndPan="magnify" viewBox="0 0 375 374.999991" height="500" preserveAspectRatio="xMidYMid meet" version="1.0"><defs><clipPath id="d61e36e520"><path d="M 107 36.808594 L 253 36.808594 L 253 336 L 107 336 Z M 107 36.808594 " clip-rule="nonzero"/></clipPath><clipPath id="01047ce9da"><path d="M 121 31.769531 L 272 31.769531 L 272 342 L 121 342 Z M 121 31.769531 " clip-rule="nonzero"/></clipPath></defs><g clip-path="url(#d61e36e520)"><path fill="#ffffff" d="M 225.511719 186.894531 L 110.074219 316.382812 C 105.898438 321.058594 106.316406 328.25 111.003906 332.441406 C 115.679688 336.609375 122.875 336.191406 127.058594 331.511719 L 249.183594 194.515625 C 253.003906 190.210938 253.019531 183.753906 249.230469 179.429688 L 127.09375 40.664062 C 124.859375 38.113281 121.710938 36.808594 118.570312 36.808594 C 115.890625 36.808594 113.214844 37.742188 111.058594 39.644531 C 106.339844 43.792969 105.878906 50.972656 110.03125 55.699219 Z M 225.511719 186.894531 " fill-opacity="1" fill-rule="nonzero"/></g><g clip-path="url(#01047ce9da)"><path fill="#000000" d="M 243.589844 187.484375 L 124.109375 321.828125 C 119.789062 326.679688 120.21875 334.144531 125.070312 338.488281 C 129.910156 342.8125 137.359375 342.378906 141.6875 337.523438 L 268.089844 195.390625 C 272.046875 190.925781 272.0625 184.226562 268.136719 179.742188 L 141.722656 35.769531 C 139.414062 33.125 136.152344 31.769531 132.902344 31.769531 C 130.128906 31.769531 127.355469 32.742188 125.128906 34.714844 C 120.242188 39.019531 119.765625 46.464844 124.0625 51.371094 Z M 243.589844 187.484375 " fill-opacity="1" fill-rule="nonzero"/></g></svg>