<svg xmlns="http://www.w3.org/2000/svg" xmlns:xlink="http://www.w3.org/1999/xlink" width="700" zoomAndPan="magnify" viewBox="0 0 525 225" height="300" preserveAspectRatio="xMidYMid meet" version="1.0"><defs><g/></defs><g fill="#000000" fill-opacity="1"><g transform="translate(80.338527, 112.431247)"><g><path d="M 36.265625 0 L 33.546875 -8.21875 L 16.015625 -8.21875 L 13.296875 0 L 0.625 0 L 17.609375 -49 L 32.09375 -49 L 49 0 Z M 19 -17.265625 L 30.5625 -17.265625 L 24.78125 -34.671875 Z M 19 -17.265625 "/></g></g></g><g fill="#000000" fill-opacity="1"><g transform="translate(128.231129, 112.431247)"><g><path d="M 16.078125 -43.21875 C 14.734375 -41.875 13.085938 -41.203125 11.140625 -41.203125 C 9.191406 -41.203125 7.539062 -41.875 6.1875 -43.21875 C 4.84375 -44.570312 4.171875 -46.234375 4.171875 -48.203125 C 4.171875 -50.171875 4.84375 -51.828125 6.1875 -53.171875 C 7.539062 -54.523438 9.191406 -55.203125 11.140625 -55.203125 C 13.085938 -55.203125 14.734375 -54.523438 16.078125 -53.171875 C 17.421875 -51.828125 18.09375 -50.171875 18.09375 -48.203125 C 18.09375 -46.234375 17.421875 -44.570312 16.078125 -43.21875 Z M 5.21875 0 L 5.21875 -38.84375 L 17.125 -38.84375 L 17.125 0 Z M 5.21875 0 "/></g></g></g><g fill="#000000" fill-opacity="1"><g transform="translate(148.836013, 112.431247)"><g><path d="M 1.875 -39.8125 L 1.875 -48.859375 L 40.4375 -48.859375 L 40.4375 -39.8125 L 27.078125 -39.8125 L 27.078125 0 L 15.171875 0 L 15.171875 -39.8125 Z M 1.875 -39.8125 "/></g></g></g><g fill="#000000" fill-opacity="1"><g transform="translate(189.419407, 112.431247)"><g><path d="M 28.890625 -12.3125 C 30.609375 -13.988281 31.46875 -16.359375 31.46875 -19.421875 C 31.46875 -22.484375 30.609375 -24.835938 28.890625 -26.484375 C 27.171875 -28.128906 25.195312 -28.953125 22.96875 -28.953125 C 20.738281 -28.953125 18.765625 -28.117188 17.046875 -26.453125 C 15.335938 -24.785156 14.484375 -22.414062 14.484375 -19.34375 C 14.484375 -16.28125 15.335938 -13.925781 17.046875 -12.28125 C 18.765625 -10.632812 20.738281 -9.8125 22.96875 -9.8125 C 25.195312 -9.8125 27.171875 -10.644531 28.890625 -12.3125 Z M 7.515625 -5.078125 C 4.078125 -8.796875 2.359375 -13.550781 2.359375 -19.34375 C 2.359375 -25.144531 4.078125 -29.914062 7.515625 -33.65625 C 10.953125 -37.394531 15.140625 -39.265625 20.078125 -39.265625 C 25.023438 -39.265625 28.820312 -37.429688 31.46875 -33.765625 L 31.46875 -38.84375 L 43.359375 -38.84375 L 43.359375 0 L 31.46875 0 L 31.46875 -5.640625 C 28.582031 -1.554688 24.726562 0.484375 19.90625 0.484375 C 15.082031 0.484375 10.953125 -1.367188 7.515625 -5.078125 Z M 7.515625 -5.078125 "/></g></g></g><g fill="#000000" fill-opacity="1"><g transform="translate(236.267837, 112.431247)"><g><path d="M 17.125 -38.84375 L 17.125 -33.140625 C 19.582031 -37.222656 23.503906 -39.265625 28.890625 -39.265625 C 33.347656 -39.265625 36.957031 -37.773438 39.71875 -34.796875 C 42.476562 -31.828125 43.859375 -27.789062 43.859375 -22.6875 L 43.859375 0 L 32.015625 0 L 32.015625 -21.09375 C 32.015625 -23.59375 31.351562 -25.523438 30.03125 -26.890625 C 28.707031 -28.265625 26.882812 -28.953125 24.5625 -28.953125 C 22.25 -28.953125 20.429688 -28.265625 19.109375 -26.890625 C 17.785156 -25.523438 17.125 -23.59375 17.125 -21.09375 L 17.125 0 L 5.21875 0 L 5.21875 -38.84375 Z M 17.125 -38.84375 "/></g></g></g><g fill="#000000" fill-opacity="1"><g transform="translate(283.25549, 112.431247)"><g><path d="M 60.5625 -48.859375 L 60.5625 0 L 48.65625 0 L 48.65625 -27.5625 L 37.3125 0 L 28.46875 0 L 17.125 -27.5625 L 17.125 0 L 5.21875 0 L 5.21875 -48.859375 L 18.859375 -48.859375 L 32.921875 -15.171875 L 46.921875 -48.859375 Z M 60.5625 -48.859375 "/></g></g></g><g fill="#000000" fill-opacity="1"><g transform="translate(347.29795, 112.431247)"><g><path d="M 28.890625 -12.3125 C 30.609375 -13.988281 31.46875 -16.359375 31.46875 -19.421875 C 31.46875 -22.484375 30.609375 -24.835938 28.890625 -26.484375 C 27.171875 -28.128906 25.195312 -28.953125 22.96875 -28.953125 C 20.738281 -28.953125 18.765625 -28.117188 17.046875 -26.453125 C 15.335938 -24.785156 14.484375 -22.414062 14.484375 -19.34375 C 14.484375 -16.28125 15.335938 -13.925781 17.046875 -12.28125 C 18.765625 -10.632812 20.738281 -9.8125 22.96875 -9.8125 C 25.195312 -9.8125 27.171875 -10.644531 28.890625 -12.3125 Z M 7.515625 -5.078125 C 4.078125 -8.796875 2.359375 -13.550781 2.359375 -19.34375 C 2.359375 -25.144531 4.078125 -29.914062 7.515625 -33.65625 C 10.953125 -37.394531 15.140625 -39.265625 20.078125 -39.265625 C 25.023438 -39.265625 28.820312 -37.429688 31.46875 -33.765625 L 31.46875 -38.84375 L 43.359375 -38.84375 L 43.359375 0 L 31.46875 0 L 31.46875 -5.640625 C 28.582031 -1.554688 24.726562 0.484375 19.90625 0.484375 C 15.082031 0.484375 10.953125 -1.367188 7.515625 -5.078125 Z M 7.515625 -5.078125 "/></g></g></g><g fill="#000000" fill-opacity="1"><g transform="translate(394.14638, 112.431247)"><g><path d="M 5.21875 0 L 5.21875 -51.515625 L 17.125 -51.515625 L 17.125 0 Z M 5.21875 0 "/></g></g></g><g fill="#000000" fill-opacity="1"><g transform="translate(414.751267, 112.431247)"><g><path d="M 5.21875 0 L 5.21875 -51.515625 L 17.125 -51.515625 L 17.125 0 Z M 5.21875 0 "/></g></g></g><g fill="#000000" fill-opacity="1"><g transform="translate(161.071876, 192.098805)"><g><path d="M 7 0 L 6.484375 -1.578125 L 3.09375 -1.578125 L 2.5625 0 L 0.125 0 L 3.40625 -9.453125 L 6.1875 -9.453125 L 9.453125 0 Z M 3.671875 -3.328125 L 5.90625 -3.328125 L 4.78125 -6.6875 Z M 3.671875 -3.328125 "/></g></g></g><g fill="#000000" fill-opacity="1"><g transform="translate(171.725057, 192.098805)"><g><path d="M 3.3125 -3.671875 L 3.3125 0 L 1.015625 0 L 1.015625 -9.4375 L 4.734375 -9.4375 C 5.828125 -9.4375 6.675781 -9.148438 7.28125 -8.578125 C 7.894531 -8.015625 8.203125 -7.335938 8.203125 -6.546875 C 8.203125 -5.992188 8.035156 -5.457031 7.703125 -4.9375 C 7.367188 -4.425781 6.828125 -4.0625 6.078125 -3.84375 L 8.390625 0 L 5.703125 0 L 3.578125 -3.671875 Z M 3.3125 -7.6875 L 3.3125 -5.421875 L 4.734375 -5.421875 C 5.078125 -5.421875 5.347656 -5.519531 5.546875 -5.71875 C 5.753906 -5.925781 5.859375 -6.195312 5.859375 -6.53125 C 5.859375 -6.875 5.753906 -7.148438 5.546875 -7.359375 C 5.335938 -7.578125 5.066406 -7.6875 4.734375 -7.6875 Z M 3.3125 -7.6875 "/></g></g></g><g fill="#000000" fill-opacity="1"><g transform="translate(181.773756, 192.098805)"><g><path d="M 0.359375 -7.6875 L 0.359375 -9.4375 L 7.8125 -9.4375 L 7.8125 -7.6875 L 5.234375 -7.6875 L 5.234375 0 L 2.921875 0 L 2.921875 -7.6875 Z M 0.359375 -7.6875 "/></g></g></g><g fill="#000000" fill-opacity="1"><g transform="translate(191.016484, 192.098805)"><g><path d="M 1.015625 0 L 1.015625 -9.4375 L 3.3125 -9.4375 L 3.3125 0 Z M 1.015625 0 "/></g></g></g><g fill="#000000" fill-opacity="1"><g transform="translate(196.403967, 192.098805)"><g><path d="M 1.015625 0 L 1.015625 -9.4375 L 7.15625 -9.4375 L 7.15625 -7.6875 L 3.3125 -7.6875 L 3.3125 -5.65625 L 6.1875 -5.65625 L 6.1875 -3.90625 L 3.3125 -3.90625 L 3.3125 0 Z M 1.015625 0 "/></g></g></g><g fill="#000000" fill-opacity="1"><g transform="translate(205.203401, 192.098805)"><g><path d="M 1.015625 0 L 1.015625 -9.4375 L 3.3125 -9.4375 L 3.3125 0 Z M 1.015625 0 "/></g></g></g><g fill="#000000" fill-opacity="1"><g transform="translate(210.590881, 192.098805)"><g><path d="M 1.859375 -1.28125 C 0.921875 -2.1875 0.453125 -3.335938 0.453125 -4.734375 C 0.453125 -6.140625 0.921875 -7.296875 1.859375 -8.203125 C 2.796875 -9.109375 3.941406 -9.5625 5.296875 -9.5625 C 6.335938 -9.5625 7.265625 -9.285156 8.078125 -8.734375 C 8.898438 -8.179688 9.472656 -7.410156 9.796875 -6.421875 L 7.0625 -6.421875 C 6.695312 -7.109375 6.117188 -7.453125 5.328125 -7.453125 C 4.546875 -7.453125 3.925781 -7.207031 3.46875 -6.71875 C 3.019531 -6.226562 2.796875 -5.566406 2.796875 -4.734375 C 2.796875 -3.910156 3.019531 -3.253906 3.46875 -2.765625 C 3.925781 -2.273438 4.546875 -2.03125 5.328125 -2.03125 C 6.117188 -2.03125 6.695312 -2.375 7.0625 -3.0625 L 9.796875 -3.0625 C 9.472656 -2.070312 8.898438 -1.300781 8.078125 -0.75 C 7.265625 -0.195312 6.335938 0.078125 5.296875 0.078125 C 3.941406 0.078125 2.796875 -0.375 1.859375 -1.28125 Z M 1.859375 -1.28125 "/></g></g></g><g fill="#000000" fill-opacity="1"><g transform="translate(221.929132, 192.098805)"><g><path d="M 1.015625 0 L 1.015625 -9.4375 L 3.3125 -9.4375 L 3.3125 0 Z M 1.015625 0 "/></g></g></g><g fill="#000000" fill-opacity="1"><g transform="translate(227.316612, 192.098805)"><g><path d="M 7 0 L 6.484375 -1.578125 L 3.09375 -1.578125 L 2.5625 0 L 0.125 0 L 3.40625 -9.453125 L 6.1875 -9.453125 L 9.453125 0 Z M 3.671875 -3.328125 L 5.90625 -3.328125 L 4.78125 -6.6875 Z M 3.671875 -3.328125 "/></g></g></g><g fill="#000000" fill-opacity="1"><g transform="translate(237.969791, 192.098805)"><g><path d="M 1.015625 -9.4375 L 3.3125 -9.4375 L 3.3125 -1.75 L 6.171875 -1.75 L 6.171875 0 L 1.015625 0 Z M 1.015625 -9.4375 "/></g></g></g><g fill="#000000" fill-opacity="1"><g transform="translate(245.479669, 192.098805)"><g/></g></g><g fill="#000000" fill-opacity="1"><g transform="translate(250.585052, 192.098805)"><g><path d="M 1.015625 0 L 1.015625 -9.4375 L 3.3125 -9.4375 L 3.3125 0 Z M 1.015625 0 "/></g></g></g><g fill="#000000" fill-opacity="1"><g transform="translate(255.972532, 192.098805)"><g><path d="M 7.15625 -9.453125 L 9.453125 -9.453125 L 9.453125 0 L 7.15625 0 L 3.3125 -5.953125 L 3.3125 0 L 1.015625 0 L 1.015625 -9.453125 L 3.3125 -9.453125 L 7.15625 -3.5 Z M 7.15625 -9.453125 "/></g></g></g><g fill="#000000" fill-opacity="1"><g transform="translate(267.498843, 192.098805)"><g><path d="M 0.359375 -7.6875 L 0.359375 -9.4375 L 7.8125 -9.4375 L 7.8125 -7.6875 L 5.234375 -7.6875 L 5.234375 0 L 2.921875 0 L 2.921875 -7.6875 Z M 0.359375 -7.6875 "/></g></g></g><g fill="#000000" fill-opacity="1"><g transform="translate(276.74157, 192.098805)"><g><path d="M 6.71875 -9.453125 L 6.71875 -7.71875 L 3.3125 -7.71875 L 3.3125 -5.6875 L 6.3125 -5.6875 L 6.3125 -3.9375 L 3.3125 -3.9375 L 3.3125 -1.75 L 6.71875 -1.75 L 6.71875 0 L 1.015625 0 L 1.015625 -9.453125 Z M 6.71875 -9.453125 "/></g></g></g><g fill="#000000" fill-opacity="1"><g transform="translate(285.500702, 192.098805)"><g><path d="M 1.015625 -9.4375 L 3.3125 -9.4375 L 3.3125 -1.75 L 6.171875 -1.75 L 6.171875 0 L 1.015625 0 Z M 1.015625 -9.4375 "/></g></g></g><g fill="#000000" fill-opacity="1"><g transform="translate(293.01058, 192.098805)"><g><path d="M 1.015625 -9.4375 L 3.3125 -9.4375 L 3.3125 -1.75 L 6.171875 -1.75 L 6.171875 0 L 1.015625 0 Z M 1.015625 -9.4375 "/></g></g></g><g fill="#000000" fill-opacity="1"><g transform="translate(300.520457, 192.098805)"><g><path d="M 1.015625 0 L 1.015625 -9.4375 L 3.3125 -9.4375 L 3.3125 0 Z M 1.015625 0 "/></g></g></g><g fill="#000000" fill-opacity="1"><g transform="translate(305.907937, 192.098805)"><g><path d="M 1.859375 -1.28125 C 0.921875 -2.1875 0.453125 -3.335938 0.453125 -4.734375 C 0.453125 -6.140625 0.921875 -7.296875 1.859375 -8.203125 C 2.796875 -9.109375 3.941406 -9.5625 5.296875 -9.5625 C 6.335938 -9.5625 7.265625 -9.285156 8.078125 -8.734375 C 8.898438 -8.179688 9.472656 -7.410156 9.796875 -6.421875 L 7.0625 -6.421875 C 6.695312 -7.109375 6.117188 -7.453125 5.328125 -7.453125 C 4.546875 -7.453125 3.925781 -7.207031 3.46875 -6.71875 C 3.019531 -6.226562 2.796875 -5.566406 2.796875 -4.734375 C 2.796875 -3.910156 3.019531 -3.253906 3.46875 -2.765625 C 3.925781 -2.273438 4.535156 -2.03125 5.296875 -2.03125 C 5.835938 -2.03125 6.28125 -2.164062 6.625 -2.4375 C 6.976562 -2.707031 7.210938 -3.070312 7.328125 -3.53125 L 4.65625 -3.53125 L 4.65625 -5.28125 L 9.796875 -5.28125 L 9.796875 -3.53125 C 9.628906 -2.675781 9.160156 -1.875 8.390625 -1.125 C 8.015625 -0.769531 7.554688 -0.476562 7.015625 -0.25 C 6.472656 -0.03125 5.898438 0.078125 5.296875 0.078125 C 3.941406 0.078125 2.796875 -0.375 1.859375 -1.28125 Z M 1.859375 -1.28125 "/></g></g></g><g fill="#000000" fill-opacity="1"><g transform="translate(317.246188, 192.098805)"><g><path d="M 6.71875 -9.453125 L 6.71875 -7.71875 L 3.3125 -7.71875 L 3.3125 -5.6875 L 6.3125 -5.6875 L 6.3125 -3.9375 L 3.3125 -3.9375 L 3.3125 -1.75 L 6.71875 -1.75 L 6.71875 0 L 1.015625 0 L 1.015625 -9.453125 Z M 6.71875 -9.453125 "/></g></g></g><g fill="#000000" fill-opacity="1"><g transform="translate(326.00532, 192.098805)"><g><path d="M 7.15625 -9.453125 L 9.453125 -9.453125 L 9.453125 0 L 7.15625 0 L 3.3125 -5.953125 L 3.3125 0 L 1.015625 0 L 1.015625 -9.453125 L 3.3125 -9.453125 L 7.15625 -3.5 Z M 7.15625 -9.453125 "/></g></g></g><g fill="#000000" fill-opacity="1"><g transform="translate(337.531632, 192.098805)"><g><path d="M 1.859375 -1.28125 C 0.921875 -2.1875 0.453125 -3.335938 0.453125 -4.734375 C 0.453125 -6.140625 0.921875 -7.296875 1.859375 -8.203125 C 2.796875 -9.109375 3.941406 -9.5625 5.296875 -9.5625 C 6.335938 -9.5625 7.265625 -9.285156 8.078125 -8.734375 C 8.898438 -8.179688 9.472656 -7.410156 9.796875 -6.421875 L 7.0625 -6.421875 C 6.695312 -7.109375 6.117188 -7.453125 5.328125 -7.453125 C 4.546875 -7.453125 3.925781 -7.207031 3.46875 -6.71875 C 3.019531 -6.226562 2.796875 -5.566406 2.796875 -4.734375 C 2.796875 -3.910156 3.019531 -3.253906 3.46875 -2.765625 C 3.925781 -2.273438 4.546875 -2.03125 5.328125 -2.03125 C 6.117188 -2.03125 6.695312 -2.375 7.0625 -3.0625 L 9.796875 -3.0625 C 9.472656 -2.070312 8.898438 -1.300781 8.078125 -0.75 C 7.265625 -0.195312 6.335938 0.078125 5.296875 0.078125 C 3.941406 0.078125 2.796875 -0.375 1.859375 -1.28125 Z M 1.859375 -1.28125 "/></g></g></g><g fill="#000000" fill-opacity="1"><g transform="translate(348.869893, 192.098805)"><g><path d="M 6.71875 -9.453125 L 6.71875 -7.71875 L 3.3125 -7.71875 L 3.3125 -5.6875 L 6.3125 -5.6875 L 6.3125 -3.9375 L 3.3125 -3.9375 L 3.3125 -1.75 L 6.71875 -1.75 L 6.71875 0 L 1.015625 0 L 1.015625 -9.453125 Z M 6.71875 -9.453125 "/></g></g></g><path stroke-linecap="butt" transform="matrix(0.707824, 0.251123, -0.250772, 0.706833, 64.558973, 125.32398)" fill="none" stroke-linejoin="miter" d="M 0.00174494 2.000278 L 131.820271 1.998636 " stroke="#000000" stroke-width="4" stroke-opacity="1" stroke-miterlimit="4"/><path stroke-linecap="round" transform="matrix(0.707824, 0.251123, -0.250772, 0.706833, 64.558973, 125.32398)" fill="none" stroke-linejoin="round" d="M 123.817506 -4.000399 L 131.820271 1.998636 L 123.820386 8.001938 " stroke="#000000" stroke-width="4" stroke-opacity="1" stroke-miterlimit="4"/><path stroke-linecap="butt" transform="matrix(0.70949, -0.248535, 0.247952, 0.707827, 158.752829, 158.252859)" fill="none" stroke-linejoin="miter" d="M 0.00182982 1.999872 L 137.683262 1.999658 " stroke="#000000" stroke-width="4" stroke-opacity="1" stroke-miterlimit="4"/><path stroke-linecap="round" transform="matrix(0.70949, -0.248535, 0.247952, 0.707827, 158.752829, 158.252859)" fill="none" stroke-linejoin="round" d="M 129.68234 -3.999429 L 137.683262 1.999658 L 129.67963 7.997159 " stroke="#000000" stroke-width="4" stroke-opacity="1" stroke-miterlimit="4"/><path stroke-linecap="butt" transform="matrix(0.707824, 0.251123, -0.250772, 0.706833, 259.820672, 127.027726)" fill="none" stroke-linejoin="miter" d="M 0.00149239 1.99949 L 131.820019 1.997848 " stroke="#000000" stroke-width="4" stroke-opacity="1" stroke-miterlimit="4"/><path stroke-linecap="round" transform="matrix(0.707824, 0.251123, -0.250772, 0.706833, 259.820672, 127.027726)" fill="none" stroke-linejoin="round" d="M 123.817254 -4.001187 L 131.820019 1.997848 L 123.820134 8.00115 " stroke="#000000" stroke-width="4" stroke-opacity="1" stroke-miterlimit="4"/><path stroke-linecap="butt" transform="matrix(0.70949, -0.248535, 0.247952, 0.707827, 354.014486, 159.956591)" fill="none" stroke-linejoin="miter" d="M 0.00217432 1.999136 L 137.683606 1.998923 " stroke="#000000" stroke-width="4" stroke-opacity="1" stroke-miterlimit="4"/><path stroke-linecap="round" transform="matrix(0.70949, -0.248535, 0.247952, 0.707827, 354.014486, 159.956591)" fill="none" stroke-linejoin="round" d="M 129.682685 -4.000164 L 137.683606 1.998923 L 129.678257 8.001339 " stroke="#000000" stroke-width="4" stroke-opacity="1" stroke-miterlimit="4"/><path stroke-linecap="butt" transform="matrix(-0.707824, -0.251123, 0.250772, -0.706833, 452.867477, 49.397406)" fill="none" stroke-linejoin="miter" d="M 0.00201794 1.998383 L 131.820544 1.996742 " stroke="#000000" stroke-width="4" stroke-opacity="1" stroke-miterlimit="4"/><path stroke-linecap="round" transform="matrix(-0.707824, -0.251123, 0.250772, -0.706833, 452.867477, 49.397406)" fill="none" stroke-linejoin="round" d="M 123.817779 -4.002294 L 131.820544 1.996742 L 123.820659 8.000044 " stroke="#000000" stroke-width="4" stroke-opacity="1" stroke-miterlimit="4"/><path stroke-linecap="butt" transform="matrix(-0.70949, 0.248535, -0.247952, -0.707827, 358.671782, 16.468519)" fill="none" stroke-linejoin="miter" d="M 0.000922977 1.997748 L 137.680637 2.00245 " stroke="#000000" stroke-width="4" stroke-opacity="1" stroke-miterlimit="4"/><path stroke-linecap="round" transform="matrix(-0.70949, 0.248535, -0.247952, -0.707827, 358.671782, 16.468519)" fill="none" stroke-linejoin="round" d="M 129.681433 -4.001552 L 137.680637 2.00245 L 129.68191 8.001672 " stroke="#000000" stroke-width="4" stroke-opacity="1" stroke-miterlimit="4"/><path stroke-linecap="butt" transform="matrix(-0.707824, -0.251123, 0.250772, -0.706833, 257.60577, 47.693662)" fill="none" stroke-linejoin="miter" d="M 0.00175742 1.997601 L 131.822023 2.000868 " stroke="#000000" stroke-width="4" stroke-opacity="1" stroke-miterlimit="4"/><path stroke-linecap="round" transform="matrix(-0.707824, -0.251123, 0.250772, -0.706833, 257.60577, 47.693662)" fill="none" stroke-linejoin="round" d="M 123.819258 -3.998167 L 131.822023 2.000868 L 123.820399 7.999262 " stroke="#000000" stroke-width="4" stroke-opacity="1" stroke-miterlimit="4"/><path stroke-linecap="butt" transform="matrix(-0.70949, 0.248535, -0.247952, -0.707827, 163.410082, 14.764776)" fill="none" stroke-linejoin="miter" d="M -0.000499227 2.001894 L 137.680933 2.00168 " stroke="#000000" stroke-width="4" stroke-opacity="1" stroke-miterlimit="4"/><path stroke-linecap="round" transform="matrix(-0.70949, 0.248535, -0.247952, -0.707827, 163.410082, 14.764776)" fill="none" stroke-linejoin="round" d="M 129.681729 -4.002322 L 137.680933 2.00168 L 129.682205 8.000903 " stroke="#000000" stroke-width="4" stroke-opacity="1" stroke-miterlimit="4"/></svg>